<svg width="49" height="20" viewBox="0 0 49 20" fill="none" xmlns="http://www.w3.org/2000/svg">
<path d="M2.41998 19.7C2.23332 19.7 1.95998 19.68 1.59998 19.64C1.22665 19.6 0.879985 19.5267 0.559985 19.42L0.959985 17C1.15998 17.0667 1.34665 17.1133 1.51998 17.14C1.67998 17.1667 1.88665 17.18 2.13998 17.18C2.60665 17.18 2.93332 17.04 3.11998 16.76C3.30665 16.48 3.39998 16.0733 3.39998 15.54V5.48H6.37998V15.62C6.37998 17.0067 6.03998 18.0333 5.35998 18.7C4.67998 19.3667 3.69998 19.7 2.41998 19.7ZM6.65998 2.44C6.65998 2.98667 6.47998 3.42 6.11999 3.74C5.77332 4.04667 5.35998 4.2 4.87998 4.2C4.39998 4.2 3.97998 4.04667 3.61998 3.74C3.27332 3.42 3.09998 2.98667 3.09998 2.44C3.09998 1.89333 3.27332 1.46667 3.61998 1.16C3.97998 0.839999 4.39998 0.679999 4.87998 0.679999C5.35998 0.679999 5.77332 0.839999 6.11999 1.16C6.47998 1.46667 6.65998 1.89333 6.65998 2.44ZM19.0212 10.72C19.0212 11.5467 18.9012 12.3067 18.6612 13C18.4212 13.68 18.0746 14.2667 17.6212 14.76C17.1679 15.24 16.6212 15.6133 15.9812 15.88C15.3546 16.1467 14.6479 16.28 13.8612 16.28C13.0879 16.28 12.3812 16.1467 11.7412 15.88C11.1146 15.6133 10.5746 15.24 10.1212 14.76C9.6679 14.2667 9.31457 13.68 9.06123 13C8.8079 12.3067 8.68123 11.5467 8.68123 10.72C8.68123 9.89333 8.8079 9.14 9.06123 8.46C9.3279 7.78 9.6879 7.2 10.1412 6.72C10.6079 6.24 11.1546 5.86667 11.7812 5.6C12.4212 5.33333 13.1146 5.2 13.8612 5.2C14.6212 5.2 15.3146 5.33333 15.9412 5.6C16.5812 5.86667 17.1279 6.24 17.5812 6.72C18.0346 7.2 18.3879 7.78 18.6412 8.46C18.8946 9.14 19.0212 9.89333 19.0212 10.72ZM15.9812 10.72C15.9812 9.8 15.7946 9.08 15.4212 8.56C15.0612 8.02667 14.5412 7.76 13.8612 7.76C13.1812 7.76 12.6546 8.02667 12.2812 8.56C11.9079 9.08 11.7212 9.8 11.7212 10.72C11.7212 11.64 11.9079 12.3733 12.2812 12.92C12.6546 13.4533 13.1812 13.72 13.8612 13.72C14.5412 13.72 15.0612 13.4533 15.4212 12.92C15.7946 12.3733 15.9812 11.64 15.9812 10.72ZM30.3097 15.64C29.803 15.7867 29.1497 15.92 28.3497 16.04C27.5497 16.1733 26.7097 16.24 25.8297 16.24C24.9363 16.24 24.1897 16.12 23.5897 15.88C23.003 15.64 22.5363 15.3067 22.1897 14.88C21.843 14.44 21.5963 13.92 21.4497 13.32C21.303 12.72 21.2297 12.06 21.2297 11.34V5.48H24.2097V10.98C24.2097 11.94 24.3363 12.6333 24.5897 13.06C24.843 13.4867 25.3163 13.7 26.0097 13.7C26.223 13.7 26.4497 13.6933 26.6897 13.68C26.9297 13.6533 27.143 13.6267 27.3297 13.6V5.48H30.3097V15.64ZM37.307 16.2C36.4403 16.1867 35.7337 16.0933 35.187 15.92C34.6537 15.7467 34.227 15.5067 33.907 15.2C33.6003 14.88 33.387 14.5 33.267 14.06C33.1603 13.6067 33.107 13.1 33.107 12.54V0.959999L36.087 0.48V11.94C36.087 12.2067 36.107 12.4467 36.147 12.66C36.187 12.8733 36.2603 13.0533 36.367 13.2C36.487 13.3467 36.6537 13.4667 36.867 13.56C37.0803 13.6533 37.367 13.7133 37.727 13.74L37.307 16.2ZM38.9351 10.82C38.9351 9.88667 39.0751 9.07333 39.3551 8.38C39.6485 7.67333 40.0285 7.08667 40.4951 6.62C40.9618 6.15333 41.4951 5.8 42.0951 5.56C42.7085 5.32 43.3351 5.2 43.9751 5.2C45.4685 5.2 46.6485 5.66 47.5151 6.58C48.3818 7.48667 48.8151 8.82667 48.8151 10.6C48.8151 10.7733 48.8085 10.9667 48.7951 11.18C48.7818 11.38 48.7685 11.56 48.7551 11.72H41.9951C42.0618 12.3333 42.3485 12.82 42.8551 13.18C43.3618 13.54 44.0418 13.72 44.8951 13.72C45.4418 13.72 45.9751 13.6733 46.4951 13.58C47.0285 13.4733 47.4618 13.3467 47.7951 13.2L48.1951 15.62C48.0351 15.7 47.8218 15.78 47.5551 15.86C47.2885 15.94 46.9885 16.0067 46.6551 16.06C46.3351 16.1267 45.9885 16.18 45.6151 16.22C45.2418 16.26 44.8685 16.28 44.4951 16.28C43.5485 16.28 42.7218 16.14 42.0151 15.86C41.3218 15.58 40.7418 15.2 40.2751 14.72C39.8218 14.2267 39.4818 13.6467 39.2551 12.98C39.0418 12.3133 38.9351 11.5933 38.9351 10.82ZM45.9351 9.68C45.9218 9.42667 45.8751 9.18 45.7951 8.94C45.7285 8.7 45.6151 8.48667 45.4551 8.3C45.3085 8.11333 45.1151 7.96 44.8751 7.84C44.6485 7.72 44.3618 7.66 44.0151 7.66C43.6818 7.66 43.3951 7.72 43.1551 7.84C42.9151 7.94667 42.7151 8.09333 42.5551 8.28C42.3951 8.46667 42.2685 8.68667 42.1751 8.94C42.0951 9.18 42.0351 9.42667 41.9951 9.68H45.9351Z" fill="#216583"/>
</svg>
